<svg width="30" height="30" viewBox="0 0 30 30" fill="none" xmlns="http://www.w3.org/2000/svg">
<rect width="30" height="30" rx="15" fill="#418FDA"/>
<path d="M14.3666 16.9666L13.1333 18.1999C12.8733 18.4599 12.46 18.4599 12.1933 18.2066C12.12 18.1333 12.0466 18.0666 11.9733 17.9933C11.2866 17.2999 10.6666 16.5733 10.1133 15.8133C9.56665 15.0533 9.12665 14.2933 8.80665 13.5399C8.49331 12.7799 8.33331 12.0533 8.33331 11.3599C8.33331 10.9066 8.41331 10.4733 8.57331 10.0733C8.73331 9.66659 8.98665 9.29325 9.33998 8.95992C9.76665 8.53992 10.2333 8.33325 10.7266 8.33325C10.9133 8.33325 11.1 8.37325 11.2666 8.45325C11.44 8.53325 11.5933 8.65325 11.7133 8.82659L13.26 11.0066C13.38 11.1733 13.4666 11.3266 13.5266 11.4733C13.5866 11.6133 13.62 11.7533 13.62 11.8799C13.62 12.0399 13.5733 12.1999 13.48 12.3533C13.3933 12.5066 13.2666 12.6666 13.1066 12.8266L12.6 13.3533C12.5266 13.4266 12.4933 13.5133 12.4933 13.6199C12.4933 13.6733 12.5 13.7199 12.5133 13.7733C12.5333 13.8266 12.5533 13.8666 12.5666 13.9066C12.6866 14.1266 12.8933 14.4133 13.1866 14.7599C13.4866 15.1066 13.8066 15.4599 14.1533 15.8133C14.22 15.8799 14.2933 15.9466 14.36 16.0133C14.6266 16.2733 14.6333 16.6999 14.3666 16.9666Z" fill="white"/>
<path d="M21.6467 19.2199C21.6467 19.4065 21.6134 19.5999 21.5467 19.7865C21.5267 19.8399 21.5067 19.8932 21.48 19.9465C21.3667 20.1865 21.22 20.4132 21.0267 20.6265C20.7 20.9865 20.34 21.2465 19.9334 21.4132C19.9267 21.4132 19.92 21.4199 19.9134 21.4199C19.52 21.5799 19.0934 21.6665 18.6334 21.6665C17.9534 21.6665 17.2267 21.5065 16.46 21.1799C15.6934 20.8532 14.9267 20.4132 14.1667 19.8599C13.9067 19.6665 13.6467 19.4732 13.4 19.2665L15.58 17.0865C15.7667 17.2265 15.9334 17.3332 16.0734 17.4065C16.1067 17.4199 16.1467 17.4399 16.1934 17.4599C16.2467 17.4799 16.3 17.4865 16.36 17.4865C16.4734 17.4865 16.56 17.4465 16.6334 17.3732L17.14 16.8732C17.3067 16.7065 17.4667 16.5799 17.62 16.4999C17.7734 16.4065 17.9267 16.3599 18.0934 16.3599C18.22 16.3599 18.3534 16.3865 18.5 16.4465C18.6467 16.5065 18.8 16.5932 18.9667 16.7065L21.1734 18.2732C21.3467 18.3932 21.4667 18.5332 21.54 18.6999C21.6067 18.8665 21.6467 19.0332 21.6467 19.2199Z" fill="white"/>
</svg>
