<svg width="115" height="36" viewBox="0 0 115 36" fill="none" xmlns="http://www.w3.org/2000/svg">
<path d="M9.08414 19.0219H22.785V19.4634C22.785 25.4362 17.5434 30.1365 11.679 30.1365C5.65893 30.1365 0.391357 25.5141 0.391357 19.2037C0.391357 13.0232 5.63298 8.27097 11.5493 8.27097C16.8168 8.27097 20.6572 11.8546 21.7211 14.841H17.0763C16.1681 13.4387 14.2479 11.8806 11.4714 11.8806C6.74877 11.9066 4.28365 15.9577 4.28365 19.2297C4.28365 22.4238 6.69687 26.5009 11.679 26.5009C14.2479 26.5009 16.6611 25.0726 17.8807 22.6316H9.08414V19.0219Z" fill="#055AAB"/>
<path d="M60.386 22.8133C60.386 20.4501 61.3461 18.3467 62.929 16.8405V8.16699C62.929 8.16699 60.1525 8.34877 60.1265 11.6208C60.0746 14.8669 60.1265 17.4637 60.1265 17.4637V17.4897C58.7772 16.1653 56.9348 15.3343 54.8589 15.3343C50.7331 15.3343 47.3857 18.6843 47.3857 22.8133C47.3857 26.9423 50.7331 30.2922 54.8589 30.2922C56.9348 30.2922 58.8291 29.4352 60.2044 28.0589C60.386 28.5783 60.9569 29.5651 62.9549 29.5651V28.786C61.372 27.2799 60.386 25.1245 60.386 22.8133ZM54.8849 26.7864C52.6793 26.7864 50.8888 24.9946 50.8888 22.7873C50.8888 20.58 52.6793 18.7881 54.8849 18.7881C57.0905 18.7881 58.881 20.58 58.881 22.7873C58.855 25.0206 57.0646 26.7864 54.8849 26.7864Z" fill="#096DBF"/>
<path d="M73.9786 11.5948C73.9267 14.8409 73.9786 17.4378 73.9786 17.4378V17.4637C72.6292 16.1393 70.7869 15.3083 68.711 15.3083C64.5852 15.3083 61.2378 18.6583 61.2378 22.7873C61.2378 26.9163 64.5852 30.2662 68.711 30.2662C70.7869 30.2662 72.6811 29.4093 74.0564 28.0329C74.238 28.5523 74.8089 29.5391 76.807 29.5391V8.16699C76.781 8.16699 74.0305 8.34877 73.9786 11.5948ZM68.711 26.7864C66.5054 26.7864 64.7149 24.9946 64.7149 22.7873C64.7149 20.58 66.5054 18.7881 68.711 18.7881C70.9166 18.7881 72.7071 20.58 72.7071 22.7873C72.7071 25.0206 70.9166 26.7864 68.711 26.7864Z" fill="url(#paint0_linear_2636_2000)"/>
<path d="M25.3518 16.3989H28.2581V17.5675H28.31C28.9068 16.7105 29.5036 15.9315 31.1383 15.9315H31.3978V19.0217C28.5435 19.1516 28.5435 21.4109 28.5435 22.2159V29.6429H25.3518V16.3989Z" fill="#0762B3"/>
<path d="M46.0856 29.6429H43.1794V27.9809C42.1933 29.1754 40.2212 30.0324 38.5605 30.0324C35.1612 30.0324 32.1252 27.3057 32.1252 22.891C32.1252 18.8399 35.0834 15.9055 38.7421 15.9055C41.4408 15.9055 43.0496 17.8531 43.1275 18.0089H43.1794V16.321H46.0856V29.6429ZM39.2092 18.8659C36.6144 18.8659 35.265 21.0992 35.265 23.0988C35.265 25.3321 36.9517 27.1758 39.2092 27.1758C41.3889 27.1758 43.0756 25.4619 43.0756 22.9949C43.0756 20.2422 41.1035 18.8659 39.2092 18.8659Z" fill="#0867B9"/>
<path d="M79.7903 12.0099H82.982V14.9184H79.7903V12.0099ZM79.7903 16.3986H82.982V29.6425H79.7903V16.3986Z" fill="#0B7ACB"/>
<path d="M85.527 16.3989H88.4592V17.5415C89.0041 17.0222 90.0939 15.9315 92.066 15.9315C93.2078 15.9315 94.9463 16.4509 96.0362 17.7753C97.2558 19.2295 97.2558 21.4368 97.2558 22.4496V29.6169H94.0641V23.0988C94.0641 22.0081 94.0641 18.84 91.3914 18.84C90.8205 18.84 89.7826 19.1256 89.2376 20.0086C88.6668 20.8136 88.6668 22.1899 88.6668 23.3066V29.6169H85.4751L85.527 16.3989Z" fill="#0D7FD1"/>
<path d="M113.37 16.3989V27.2018C113.37 33.5641 108.673 35.0184 106.156 35.0184C103.432 35.0184 100.655 33.5901 99.5136 30.6297H103.12C104.366 32.1099 105.897 32.1099 106.364 32.1099C108.155 32.1099 110.256 30.8634 110.412 27.9809L110.36 27.929C109.919 28.5262 108.699 30.0324 106.027 30.0324C102.809 30.0324 99.2542 27.2797 99.2542 22.8651C99.2542 18.7101 102.627 15.9315 106.001 15.9315C108.725 15.9315 109.867 17.4896 110.23 17.983H110.282V16.373L113.37 16.3989ZM106.338 18.8659C104.418 18.8659 102.472 20.424 102.472 22.917C102.472 25.6178 104.496 27.1759 106.416 27.1759C108.336 27.1759 110.204 25.5399 110.204 22.8911C110.204 21.0213 108.673 18.8659 106.338 18.8659Z" fill="#0E85D7"/>
<path d="M2.59486 8.1148C2.59486 8.1148 7.10992 2.32381 13.5452 5.28423L15.6989 3.18078L6.64284 0.97345L0 8.1148H2.59486Z" fill="#055AAB"/>
<path d="M4.46484 9.64717L3.91992 7.93324C3.91992 7.93324 5.86607 5.10267 12.2754 5.38833L13.1576 7.51775C13.1576 7.51775 8.77231 6.76466 4.46484 9.64717Z" fill="#055AAB"/>
<path d="M1.68638 12.2175C2.05899 12.2175 2.36105 11.9152 2.36105 11.5423C2.36105 11.1694 2.05899 10.8672 1.68638 10.8672C1.31378 10.8672 1.01172 11.1694 1.01172 11.5423C1.01172 11.9152 1.31378 12.2175 1.68638 12.2175Z" fill="#055AAB"/>
<path d="M1.81706 7.8291H1.55737V11.4647H1.81706V7.8291Z" fill="#055AAB"/>
<rect x="83.397" width="31.6031" height="13.1679" rx="2.63359" fill="#066AC9"/>
<path d="M88.7934 3.88264C88.9022 3.88264 88.9975 3.92347 89.0791 4.00511C89.1653 4.08221 89.2084 4.17973 89.2084 4.29765V8.23004C89.2084 8.34797 89.1653 8.44775 89.0791 8.52939C88.993 8.6065 88.8932 8.64505 88.7798 8.64505C88.6528 8.64505 88.5507 8.6065 88.4736 8.52939C88.3965 8.44775 88.358 8.34797 88.358 8.23004V4.29765C88.358 4.17973 88.3988 4.08221 88.4804 4.00511C88.5621 3.92347 88.6664 3.88264 88.7934 3.88264ZM91.8073 3.88264C91.9343 3.88264 92.0364 3.92347 92.1135 4.00511C92.1906 4.08221 92.2291 4.17973 92.2291 4.29765V8.23004C92.2291 8.34797 92.1883 8.44775 92.1067 8.52939C92.0296 8.6065 91.9252 8.64505 91.7937 8.64505C91.6848 8.64505 91.5873 8.6065 91.5012 8.52939C91.4195 8.44775 91.3787 8.34797 91.3787 8.23004V4.29765C91.3787 4.17973 91.4218 4.08221 91.508 4.00511C91.5941 3.92347 91.6939 3.88264 91.8073 3.88264ZM88.773 5.86244H91.8073V6.64484H88.773V5.86244ZM97.6293 6.26385C97.6293 6.60402 97.5727 6.92151 97.4593 7.21633C97.3459 7.51114 97.1849 7.77194 96.9762 7.99872C96.7721 8.22097 96.5272 8.39559 96.2414 8.52259C95.9602 8.64959 95.6518 8.71308 95.3162 8.71308C94.9805 8.71308 94.6721 8.64959 94.3909 8.52259C94.1097 8.39559 93.8648 8.22097 93.6561 7.99872C93.452 7.77194 93.2933 7.51114 93.1799 7.21633C93.0665 6.92151 93.0098 6.60402 93.0098 6.26385C93.0098 5.92368 93.0665 5.60618 93.1799 5.31137C93.2933 5.01655 93.452 4.75802 93.6561 4.53577C93.8648 4.30899 94.1097 4.1321 94.3909 4.00511C94.6721 3.87811 94.9805 3.81461 95.3162 3.81461C95.6518 3.81461 95.9602 3.87811 96.2414 4.00511C96.5272 4.1321 96.7721 4.30899 96.9762 4.53577C97.1849 4.75802 97.3459 5.01655 97.4593 5.31137C97.5727 5.60618 97.6293 5.92368 97.6293 6.26385ZM96.7449 6.26385C96.7449 5.95996 96.6837 5.68556 96.5612 5.44063C96.4387 5.19117 96.2709 4.99387 96.0578 4.84873C95.8446 4.70359 95.5974 4.63102 95.3162 4.63102C95.035 4.63102 94.7878 4.70359 94.5746 4.84873C94.3614 4.99387 94.1936 5.1889 94.0712 5.43383C93.9532 5.67875 93.8943 5.95542 93.8943 6.26385C93.8943 6.56773 93.9532 6.84441 94.0712 7.09387C94.1936 7.33879 94.3614 7.53382 94.5746 7.67896C94.7878 7.8241 95.035 7.89667 95.3162 7.89667C95.5974 7.89667 95.8446 7.8241 96.0578 7.67896C96.2709 7.53382 96.4387 7.33879 96.5612 7.09387C96.6837 6.84441 96.7449 6.56773 96.7449 6.26385ZM98.8389 3.87584C98.9024 3.87584 98.9682 3.89398 99.0362 3.93027C99.1088 3.96202 99.1632 4.00511 99.1995 4.05953L100.853 6.60402L100.513 6.59041L102.207 4.05953C102.293 3.93707 102.404 3.87584 102.54 3.87584C102.649 3.87584 102.746 3.91439 102.833 3.9915C102.919 4.06861 102.962 4.16839 102.962 4.29085V8.23004C102.962 8.34797 102.923 8.44775 102.846 8.52939C102.769 8.6065 102.667 8.64505 102.54 8.64505C102.413 8.64505 102.309 8.6065 102.227 8.52939C102.15 8.44775 102.111 8.34797 102.111 8.23004V5.02562L102.377 5.08685L100.989 7.20272C100.948 7.25261 100.896 7.2957 100.832 7.33199C100.773 7.36827 100.712 7.38415 100.649 7.37961C100.59 7.38415 100.528 7.36827 100.465 7.33199C100.406 7.2957 100.356 7.25261 100.315 7.20272L99.0158 5.14808L99.1927 4.7875V8.23004C99.1927 8.34797 99.1564 8.44775 99.0838 8.52939C99.0113 8.6065 98.916 8.64505 98.7981 8.64505C98.6847 8.64505 98.5917 8.6065 98.5192 8.52939C98.4466 8.44775 98.4103 8.34797 98.4103 8.23004V4.29085C98.4103 4.17746 98.4511 4.07994 98.5328 3.9983C98.6189 3.91666 98.721 3.87584 98.8389 3.87584ZM104.4 3.88264H106.679C106.797 3.88264 106.894 3.9212 106.971 3.9983C107.053 4.07087 107.094 4.16612 107.094 4.28405C107.094 4.39744 107.053 4.49042 106.971 4.56299C106.894 4.63102 106.797 4.66504 106.679 4.66504H104.774L104.835 4.54938V5.87605L104.781 5.82162H106.373C106.491 5.82162 106.588 5.86018 106.665 5.93728C106.747 6.00985 106.788 6.1051 106.788 6.22303C106.788 6.33642 106.747 6.4294 106.665 6.50197C106.588 6.57 106.491 6.60402 106.373 6.60402H104.801L104.835 6.54959V7.92389L104.781 7.86265H106.679C106.797 7.86265 106.894 7.90348 106.971 7.98512C107.053 8.06222 107.094 8.15293 107.094 8.25725C107.094 8.37064 107.053 8.46362 106.971 8.53619C106.894 8.60876 106.797 8.64505 106.679 8.64505H104.4C104.282 8.64505 104.182 8.6065 104.1 8.52939C104.023 8.44775 103.985 8.34797 103.985 8.23004V4.29765C103.985 4.17973 104.023 4.08221 104.1 4.00511C104.182 3.92347 104.282 3.88264 104.4 3.88264ZM109.409 8.71308C109.091 8.71308 108.806 8.67453 108.552 8.59743C108.298 8.51578 108.055 8.37518 107.824 8.17561C107.765 8.12572 107.719 8.06903 107.687 8.00553C107.656 7.94203 107.64 7.87853 107.64 7.81503C107.64 7.71071 107.676 7.62 107.749 7.54289C107.826 7.46125 107.921 7.42043 108.034 7.42043C108.121 7.42043 108.198 7.44765 108.266 7.50207C108.438 7.64268 108.608 7.74926 108.776 7.82183C108.948 7.8944 109.159 7.93069 109.409 7.93069C109.577 7.93069 109.731 7.90574 109.871 7.85585C110.012 7.80142 110.125 7.73112 110.212 7.64494C110.298 7.55423 110.341 7.45218 110.341 7.33879C110.341 7.20272 110.3 7.08706 110.218 6.99181C110.137 6.89657 110.012 6.81719 109.844 6.75369C109.676 6.68566 109.463 6.6335 109.205 6.59722C108.96 6.56093 108.744 6.5065 108.558 6.43393C108.372 6.35683 108.216 6.26158 108.089 6.14819C107.966 6.03026 107.873 5.89419 107.81 5.73998C107.746 5.58124 107.715 5.40435 107.715 5.20932C107.715 4.9145 107.79 4.66277 107.939 4.45413C108.093 4.24549 108.3 4.08675 108.558 3.97789C108.817 3.86904 109.103 3.81461 109.416 3.81461C109.71 3.81461 109.983 3.85997 110.232 3.95068C110.486 4.03686 110.692 4.14798 110.851 4.28405C110.983 4.38837 111.048 4.50856 111.048 4.64463C111.048 4.74441 111.01 4.83513 110.933 4.91677C110.856 4.99841 110.765 5.03923 110.661 5.03923C110.593 5.03923 110.531 5.01882 110.477 4.978C110.404 4.9145 110.307 4.85554 110.184 4.80111C110.062 4.74215 109.933 4.69452 109.797 4.65824C109.66 4.61742 109.533 4.59701 109.416 4.59701C109.221 4.59701 109.055 4.62195 108.919 4.67184C108.787 4.72174 108.688 4.78977 108.62 4.87595C108.552 4.96212 108.518 5.06191 108.518 5.1753C108.518 5.31137 108.556 5.42476 108.633 5.51547C108.715 5.60165 108.83 5.67195 108.98 5.72638C109.13 5.77627 109.309 5.82162 109.518 5.86244C109.79 5.91234 110.028 5.9713 110.232 6.03933C110.441 6.10737 110.613 6.19581 110.749 6.30467C110.885 6.40899 110.987 6.54279 111.055 6.70607C111.123 6.86482 111.157 7.05985 111.157 7.29117C111.157 7.58598 111.076 7.83998 110.912 8.05315C110.749 8.26633 110.534 8.42961 110.266 8.543C110.003 8.65639 109.717 8.71308 109.409 8.71308Z" fill="white"/>
<defs>
<linearGradient id="paint0_linear_2636_2000" x1="76.807" y1="19.2166" x2="61.2378" y2="19.2166" gradientUnits="userSpaceOnUse">
<stop stop-color="#0E86D8"/>
<stop offset="1" stop-color="#055AAB"/>
</linearGradient>
</defs>
</svg>
